<svg width="245.000000" height="36.000000" viewBox="0 0 245 36" fill="none" xmlns="http://www.w3.org/2000/svg" xmlns:xlink="http://www.w3.org/1999/xlink">
	<desc>
			Created with Pixso.
	</desc>
	<defs/>
	<path id="Vector" d="M20.31 31.94L19.75 31.94C19.75 31.93 19.75 31.93 19.74 31.92L19.73 31.85C19.72 31.81 19.71 31.76 19.7 31.72C19.69 31.7 19.69 31.68 19.68 31.65C19.67 31.6 19.65 31.54 19.64 31.48L19.63 31.46C19.61 31.4 19.6 31.33 19.58 31.27L19.56 31.21C19.55 31.17 19.53 31.12 19.52 31.08C19.51 31.06 19.5 31.03 19.5 31.01C19.48 30.97 19.47 30.93 19.45 30.89C19.45 30.87 19.44 30.84 19.43 30.82C19.41 30.77 19.39 30.72 19.37 30.67C19.37 30.66 19.37 30.65 19.36 30.64C19.34 30.58 19.31 30.52 19.29 30.46C19.28 30.44 19.27 30.41 19.26 30.39C19.25 30.36 19.23 30.31 19.21 30.27L19.18 30.2C19.16 30.17 19.15 30.13 19.13 30.09C19.12 30.07 19.11 30.04 19.1 30.02C19.08 29.98 19.06 29.93 19.04 29.89C19.03 29.88 19.02 29.86 19.01 29.84C18.98 29.79 18.95 29.73 18.93 29.68L18.89 29.61L18.83 29.51L18.79 29.43C18.77 29.4 18.75 29.37 18.73 29.34C18.72 29.31 18.7 29.29 18.69 29.26C18.67 29.23 18.65 29.19 18.63 29.16L18.57 29.07C18.54 29.03 18.51 28.99 18.49 28.94C18.47 28.92 18.45 28.89 18.43 28.87C18.42 28.84 18.4 28.81 18.38 28.78C18.36 28.76 18.34 28.73 18.32 28.7C18.3 28.67 18.29 28.65 18.27 28.63C18.25 28.6 18.23 28.57 18.21 28.54L18.15 28.47C18.11 28.42 18.08 28.37 18.04 28.32L17.98 28.25C17.96 28.22 17.94 28.19 17.91 28.17L17.86 28.1C17.84 28.07 17.81 28.05 17.79 28.02L17.74 27.96L17.66 27.87L17.61 27.82C17.52 27.72 17.42 27.61 17.32 27.52L17.28 27.47L17.19 27.38L17.15 27.34C17.11 27.31 17.08 27.28 17.05 27.25L17.02 27.22C16.91 27.12 16.79 27.02 16.67 26.92L16.64 26.89C16.61 26.86 16.57 26.83 16.53 26.81L16.5 26.78C16.46 26.75 16.42 26.72 16.38 26.69L16.36 26.67C16.24 26.57 16.1 26.48 15.97 26.39L15.95 26.37C15.91 26.34 15.87 26.31 15.82 26.29L15.8 26.27C15.75 26.24 15.71 26.21 15.66 26.18L15.66 26.18C15.51 26.09 15.36 26 15.21 25.91L15.21 25.91C15.16 25.88 15.11 25.86 15.06 25.83L15.04 25.82C14.79 25.69 14.53 25.56 14.26 25.45L14.24 25.44C14.17 25.41 14.1 25.38 14.03 25.35L15.44 25.35C15.67 25.35 15.86 25.1 15.86 24.79C15.86 24.48 15.67 24.23 15.44 24.23L15.02 24.23C15.05 24.17 15.08 24.1 15.11 24.02C15.51 23.78 16.21 23.28 16.9 22.36L16.91 22.35C16.96 22.28 17.01 22.21 17.06 22.14L17.07 22.12C17.12 22.05 17.17 21.98 17.22 21.9L17.24 21.88C17.26 21.84 17.28 21.8 17.31 21.77C17.31 21.77 17.31 21.76 17.31 21.76C17.33 21.73 17.36 21.68 17.38 21.64L17.4 21.62C17.42 21.58 17.44 21.55 17.46 21.51C17.46 21.51 17.47 21.5 17.47 21.49C17.49 21.45 17.52 21.41 17.54 21.37L17.56 21.34C17.57 21.31 17.59 21.27 17.61 21.24C17.62 21.23 17.62 21.22 17.63 21.21C17.65 21.17 17.67 21.12 17.69 21.08L17.71 21.05C17.73 21.01 17.75 20.98 17.76 20.94L17.78 20.9C17.8 20.86 17.82 20.82 17.84 20.77L17.86 20.74C17.87 20.7 17.89 20.67 17.91 20.63L17.93 20.58C17.95 20.54 17.97 20.49 17.99 20.45C17.99 20.44 17.99 20.43 18 20.42C18.02 20.38 18.03 20.34 18.05 20.29L18.07 20.24C18.09 20.2 18.1 20.16 18.12 20.12L18.13 20.09C18.15 20.04 18.17 19.99 18.18 19.94L18.2 19.89C18.22 19.85 18.23 19.81 18.25 19.76C18.25 19.75 18.26 19.73 18.26 19.72C18.28 19.67 18.3 19.62 18.31 19.56C18.32 19.54 18.32 19.53 18.33 19.51L18.37 19.38C18.37 19.37 18.38 19.35 18.38 19.33C18.4 19.28 18.42 19.22 18.43 19.17C18.44 19.15 18.44 19.13 18.45 19.11C18.46 19.07 18.47 19.03 18.48 18.98C18.49 18.96 18.49 18.94 18.5 18.92C18.51 18.87 18.53 18.81 18.54 18.75L18.55 18.7C18.56 18.65 18.58 18.61 18.59 18.56L18.6 18.49C18.61 18.43 18.63 18.37 18.64 18.31C18.64 18.3 18.64 18.29 18.65 18.27C18.66 18.22 18.67 18.17 18.68 18.11C18.68 18.09 18.69 18.07 18.69 18.04C18.7 17.99 18.71 17.93 18.72 17.88C18.72 17.86 18.73 17.85 18.73 17.84C18.74 17.78 18.75 17.71 18.76 17.64C18.76 17.62 18.77 17.6 18.77 17.57C18.78 17.52 18.79 17.47 18.79 17.41L18.8 17.36C18.81 17.29 18.82 17.22 18.83 17.15C18.83 17.13 18.83 17.11 18.84 17.08C18.84 17.03 18.85 16.97 18.86 16.92C18.86 16.9 18.86 16.88 18.86 16.86C18.87 16.78 18.88 16.71 18.88 16.64C18.88 16.62 18.89 16.6 18.89 16.57C18.89 16.52 18.9 16.46 18.9 16.4C18.9 16.37 18.91 16.35 18.91 16.33C18.91 16.25 18.92 16.18 18.92 16.1C18.92 16.08 18.92 16.06 18.93 16.05C18.93 15.98 18.93 15.92 18.94 15.85C18.94 15.83 18.94 15.8 18.94 15.78C18.94 15.7 18.95 15.62 18.95 15.54C18.95 15.53 18.95 15.52 18.95 15.5C18.95 15.43 18.95 15.36 18.95 15.28C18.95 15.26 18.95 15.23 18.95 15.21C18.95 15.13 18.95 15.05 18.95 14.97L18.95 14.95C18.95 14.86 18.95 14.78 18.95 14.69L18.95 14.61C18.95 14.54 18.95 14.46 18.95 14.38L18.95 14.34C18.95 14.25 18.94 14.16 18.94 14.07C18.94 14.04 18.94 14.02 18.94 14C18.93 13.92 18.93 13.84 18.92 13.76C18.92 13.75 18.92 13.73 18.92 13.71C18.91 13.61 18.91 13.52 18.9 13.42L18.9 13.36C18.89 13.28 18.89 13.2 18.88 13.12C18.88 13.09 18.88 13.07 18.87 13.05C18.86 12.95 18.86 12.85 18.85 12.75C18.85 12.73 18.84 12.72 18.84 12.7C18.83 12.61 18.82 12.53 18.81 12.44C18.81 12.42 18.81 12.39 18.81 12.37C18.79 12.26 18.78 12.16 18.77 12.06C18.77 12.04 18.77 12.03 18.77 12.02C18.75 11.93 18.74 11.83 18.73 11.74C18.73 11.71 18.72 11.68 18.72 11.66C18.7 11.55 18.69 11.44 18.67 11.34C17.09 0.68 5.9 2.41 5.9 2.41L6.26 4.7L-0.5 11.48L-0.21 14.09L2.35 15.59C2.47 15.31 2.62 15.05 2.79 14.81C4.45 13 7.65 11.58 8.57 11.28C8.76 11.23 8.86 11.2 8.86 11.2C4.47 16.59 4.97 22.76 5.16 24.24C4.96 24.27 4.8 24.51 4.8 24.79C4.8 25.1 4.99 25.35 5.22 25.35L6.63 25.35C4.28 26.29 2.42 28.06 1.44 30.29C1.44 30.3 1.44 30.3 1.44 30.3C1.37 30.47 1.3 30.64 1.24 30.81C1.24 30.81 1.24 30.81 1.24 30.81C1.22 30.86 1.21 30.9 1.19 30.95C1.18 30.97 1.18 30.98 1.17 31C1.16 31.04 1.15 31.09 1.13 31.13C1.13 31.15 1.12 31.17 1.11 31.19C1.1 31.23 1.09 31.27 1.08 31.32L1.06 31.39C1.04 31.43 1.03 31.47 1.02 31.51C1.02 31.53 1.01 31.56 1 31.59C0.99 31.63 0.98 31.66 0.97 31.7C0.96 31.74 0.95 31.78 0.95 31.82C0.94 31.86 0.93 31.9 0.92 31.95L0.35 31.95C0.25 31.94 0.14 31.96 0.04 32C-0.06 32.04 -0.16 32.09 -0.23 32.17C-0.31 32.24 -0.37 32.32 -0.41 32.42C-0.46 32.51 -0.48 32.61 -0.48 32.72C-0.48 32.82 -0.46 32.92 -0.41 33.02C-0.37 33.11 -0.31 33.2 -0.23 33.27C-0.16 33.34 -0.06 33.4 0.04 33.43C0.14 33.47 0.25 33.49 0.35 33.49L20.32 33.49C20.43 33.49 20.53 33.47 20.64 33.43C20.74 33.4 20.83 33.34 20.91 33.27C20.98 33.2 21.04 33.11 21.09 33.02C21.13 32.92 21.15 32.82 21.15 32.72C21.15 32.61 21.13 32.51 21.09 32.42C21.04 32.32 20.98 32.24 20.91 32.17C20.83 32.09 20.74 32.04 20.64 32C20.53 31.96 20.43 31.94 20.32 31.95L20.31 31.94Z" fill="#595653" fill-opacity="1.000000" fill-rule="nonzero"/>
	<path id="Vector" d="" fill="#E7DBD0" fill-opacity="0" fill-rule="evenodd"/>
	<path id="Vector" d="M43.7 31.94L43.14 31.94C43.14 31.93 43.13 31.93 43.13 31.92L43.12 31.85C43.11 31.81 43.1 31.76 43.08 31.72C43.08 31.7 43.07 31.68 43.07 31.65C43.06 31.6 43.04 31.54 43.02 31.48L43.02 31.46C43 31.4 42.98 31.33 42.96 31.27L42.95 31.21C42.93 31.17 42.92 31.12 42.91 31.08C42.9 31.06 42.89 31.03 42.88 31.01C42.87 30.97 42.86 30.93 42.84 30.89C42.83 30.87 42.83 30.84 42.82 30.82C42.8 30.77 42.78 30.72 42.76 30.67C42.76 30.66 42.75 30.65 42.75 30.64C42.73 30.58 42.7 30.52 42.68 30.46C42.67 30.44 42.66 30.41 42.65 30.39C42.63 30.36 42.62 30.31 42.6 30.27L42.57 30.2C42.55 30.17 42.53 30.13 42.52 30.09C42.51 30.07 42.5 30.04 42.48 30.02C42.46 29.98 42.45 29.93 42.42 29.89C42.41 29.88 42.41 29.86 42.4 29.84C42.37 29.79 42.34 29.73 42.31 29.68L42.27 29.61L42.22 29.51L42.17 29.43C42.16 29.4 42.14 29.37 42.12 29.34C42.1 29.31 42.09 29.29 42.07 29.26C42.05 29.23 42.04 29.19 42.01 29.16L41.96 29.07C41.93 29.03 41.9 28.99 41.87 28.94C41.86 28.92 41.84 28.89 41.82 28.87C41.8 28.84 41.78 28.81 41.77 28.78C41.75 28.76 41.73 28.73 41.71 28.7C41.69 28.67 41.67 28.65 41.65 28.63C41.64 28.6 41.61 28.57 41.59 28.54L41.54 28.47C41.5 28.42 41.46 28.37 41.42 28.32L41.37 28.25C41.35 28.22 41.32 28.19 41.3 28.17L41.25 28.1C41.22 28.07 41.2 28.05 41.18 28.02L41.12 27.96L41.05 27.87L41 27.82C40.91 27.72 40.81 27.61 40.71 27.52L40.67 27.47L40.58 27.38L40.53 27.34C40.5 27.31 40.47 27.28 40.44 27.25L40.41 27.22C40.29 27.12 40.18 27.02 40.06 26.92L40.03 26.89C39.99 26.86 39.96 26.83 39.92 26.81L39.88 26.78C39.85 26.75 39.81 26.72 39.77 26.69L39.75 26.67C39.62 26.57 39.49 26.48 39.36 26.39L39.34 26.37C39.3 26.34 39.25 26.31 39.21 26.29L39.18 26.27C39.14 26.24 39.1 26.21 39.05 26.18L39.04 26.18C38.9 26.09 38.75 26 38.6 25.91L38.59 25.91C38.55 25.88 38.5 25.86 38.45 25.83L38.43 25.82C38.18 25.69 37.91 25.56 37.65 25.45L37.63 25.44C37.56 25.41 37.49 25.38 37.42 25.35L38.83 25.35C39.06 25.35 39.25 25.1 39.25 24.79C39.25 24.48 39.06 24.23 38.83 24.23L38.41 24.23C38.43 24.17 38.46 24.1 38.5 24.02C38.89 23.78 39.59 23.28 40.29 22.36L40.29 22.35C40.35 22.28 40.4 22.21 40.45 22.14L40.46 22.12C40.51 22.05 40.56 21.98 40.61 21.9L40.62 21.88C40.65 21.84 40.67 21.8 40.69 21.77C40.69 21.77 40.69 21.76 40.7 21.76C40.72 21.73 40.75 21.68 40.77 21.64L40.78 21.62C40.81 21.58 40.83 21.55 40.85 21.51C40.85 21.51 40.85 21.5 40.86 21.49C40.88 21.45 40.9 21.41 40.93 21.37L40.94 21.34C40.96 21.31 40.98 21.27 41 21.24C41 21.23 41.01 21.22 41.02 21.21C41.04 21.17 41.06 21.12 41.08 21.08L41.1 21.05C41.11 21.01 41.13 20.98 41.15 20.94L41.17 20.9C41.19 20.86 41.21 20.82 41.23 20.77L41.24 20.74C41.26 20.7 41.28 20.67 41.3 20.63L41.32 20.58C41.34 20.54 41.36 20.49 41.37 20.45C41.38 20.44 41.38 20.43 41.38 20.42C41.4 20.38 41.42 20.34 41.44 20.29L41.46 20.24C41.47 20.2 41.49 20.16 41.51 20.12L41.52 20.09C41.54 20.04 41.55 19.99 41.57 19.94L41.59 19.89C41.61 19.85 41.62 19.81 41.63 19.76C41.64 19.75 41.64 19.73 41.65 19.72C41.67 19.67 41.68 19.62 41.7 19.56C41.71 19.54 41.71 19.53 41.72 19.51L41.76 19.38C41.76 19.37 41.77 19.35 41.77 19.33C41.79 19.28 41.8 19.22 41.82 19.17C41.82 19.15 41.83 19.13 41.83 19.11C41.85 19.07 41.86 19.03 41.87 18.98C41.87 18.96 41.88 18.94 41.89 18.92C41.9 18.87 41.91 18.81 41.93 18.75L41.94 18.7C41.95 18.65 41.96 18.61 41.97 18.56L41.99 18.49C42 18.43 42.01 18.37 42.03 18.31C42.03 18.3 42.03 18.29 42.03 18.27C42.05 18.22 42.06 18.17 42.07 18.11C42.07 18.09 42.07 18.07 42.08 18.04C42.09 17.99 42.1 17.93 42.11 17.88C42.11 17.86 42.11 17.85 42.12 17.84C42.13 17.78 42.14 17.71 42.15 17.64C42.15 17.62 42.15 17.6 42.16 17.57C42.17 17.52 42.17 17.47 42.18 17.41L42.19 17.36C42.2 17.29 42.21 17.22 42.22 17.15C42.22 17.13 42.22 17.11 42.22 17.08C42.23 17.03 42.24 16.97 42.24 16.92C42.25 16.9 42.25 16.88 42.25 16.86C42.26 16.78 42.26 16.71 42.27 16.64C42.27 16.62 42.27 16.6 42.28 16.57C42.28 16.52 42.29 16.46 42.29 16.4C42.29 16.37 42.29 16.35 42.3 16.33C42.3 16.25 42.31 16.18 42.31 16.1C42.31 16.08 42.31 16.06 42.31 16.05C42.32 15.98 42.32 15.92 42.32 15.85C42.32 15.83 42.32 15.8 42.33 15.78C42.33 15.7 42.33 15.62 42.34 15.54C42.34 15.53 42.34 15.52 42.34 15.5C42.34 15.43 42.34 15.36 42.34 15.28C42.34 15.26 42.34 15.23 42.34 15.21C42.34 15.13 42.34 15.05 42.34 14.97L42.34 14.95C42.34 14.86 42.34 14.78 42.34 14.69L42.34 14.61C42.34 14.54 42.34 14.46 42.34 14.38L42.34 14.34C42.33 14.25 42.33 14.16 42.33 14.07C42.33 14.04 42.32 14.02 42.32 14C42.32 13.92 42.32 13.84 42.31 13.76C42.31 13.75 42.31 13.73 42.31 13.71C42.3 13.61 42.3 13.52 42.29 13.42L42.28 13.36C42.28 13.28 42.27 13.2 42.27 13.12C42.27 13.09 42.26 13.07 42.26 13.05C42.25 12.95 42.24 12.85 42.23 12.75C42.23 12.73 42.23 12.72 42.23 12.7C42.22 12.61 42.21 12.53 42.2 12.44C42.2 12.42 42.2 12.39 42.19 12.37C42.18 12.26 42.17 12.16 42.16 12.06C42.16 12.04 42.15 12.03 42.15 12.02C42.14 11.93 42.13 11.83 42.12 11.74C42.11 11.71 42.11 11.68 42.1 11.66C42.09 11.55 42.08 11.44 42.06 11.34C40.48 0.68 29.29 2.41 29.29 2.41L29.65 4.7L22.88 11.48L23.18 14.09L25.74 15.59C25.86 15.31 26 15.05 26.18 14.81C27.83 13 31.04 11.58 31.96 11.28C32.14 11.23 32.25 11.2 32.25 11.2C27.85 16.59 28.35 22.76 28.55 24.24C28.35 24.27 28.19 24.51 28.19 24.79C28.19 25.1 28.38 25.35 28.61 25.35L30.02 25.35C27.67 26.29 25.8 28.06 24.83 30.29C24.83 30.3 24.83 30.3 24.83 30.3C24.76 30.47 24.69 30.64 24.63 30.81C24.63 30.81 24.63 30.81 24.63 30.81C24.61 30.86 24.59 30.9 24.58 30.95C24.57 30.97 24.57 30.98 24.56 31C24.55 31.04 24.53 31.09 24.52 31.13C24.51 31.15 24.51 31.17 24.5 31.19C24.49 31.23 24.48 31.27 24.46 31.32L24.44 31.39C24.43 31.43 24.42 31.47 24.41 31.51C24.4 31.53 24.4 31.56 24.39 31.59C24.38 31.63 24.37 31.66 24.36 31.7C24.35 31.74 24.34 31.78 24.33 31.82C24.32 31.86 24.31 31.9 24.3 31.95L23.74 31.95C23.63 31.94 23.52 31.96 23.42 32C23.32 32.04 23.23 32.09 23.15 32.17C23.08 32.24 23.02 32.32 22.97 32.42C22.93 32.51 22.91 32.61 22.91 32.72C22.91 32.82 22.93 32.92 22.97 33.02C23.02 33.11 23.08 33.2 23.15 33.27C23.23 33.34 23.32 33.4 23.42 33.43C23.52 33.47 23.63 33.49 23.74 33.49L43.71 33.49C43.81 33.49 43.92 33.47 44.02 33.43C44.12 33.4 44.22 33.34 44.29 33.27C44.37 33.2 44.43 33.11 44.47 33.02C44.52 32.92 44.54 32.82 44.54 32.72C44.54 32.61 44.52 32.51 44.47 32.42C44.43 32.32 44.37 32.24 44.29 32.17C44.22 32.09 44.12 32.04 44.02 32C43.92 31.96 43.81 31.94 43.71 31.95L43.7 31.94Z" fill="#595653" fill-opacity="1.000000" fill-rule="nonzero"/>
	<path id="Vector" d="" fill="#E7DBD0" fill-opacity="0" fill-rule="evenodd"/>
	<path id="Vector" d="M67.09 31.94L66.52 31.94C66.52 31.93 66.52 31.93 66.52 31.92L66.5 31.85C66.49 31.81 66.48 31.76 66.47 31.72C66.47 31.7 66.46 31.68 66.46 31.65C66.44 31.6 66.43 31.54 66.41 31.48L66.41 31.46C66.39 31.4 66.37 31.33 66.35 31.27L66.33 31.21C66.32 31.17 66.31 31.12 66.29 31.08C66.29 31.06 66.28 31.03 66.27 31.01C66.26 30.97 66.24 30.93 66.23 30.89C66.22 30.87 66.21 30.84 66.21 30.82C66.19 30.77 66.17 30.72 66.15 30.67C66.14 30.66 66.14 30.65 66.14 30.64C66.11 30.58 66.09 30.52 66.07 30.46C66.06 30.44 66.05 30.41 66.04 30.39C66.02 30.36 66.01 30.31 65.99 30.27L65.96 30.2C65.94 30.17 65.92 30.13 65.91 30.09C65.89 30.07 65.88 30.04 65.87 30.02C65.85 29.98 65.83 29.93 65.81 29.89C65.8 29.88 65.79 29.86 65.79 29.84C65.76 29.79 65.73 29.73 65.7 29.68L65.66 29.61L65.61 29.51L65.56 29.43C65.54 29.4 65.53 29.37 65.51 29.34C65.49 29.31 65.48 29.29 65.46 29.26C65.44 29.23 65.42 29.19 65.4 29.16L65.34 29.07C65.32 29.03 65.29 28.99 65.26 28.94C65.24 28.92 65.23 28.89 65.21 28.87C65.19 28.84 65.17 28.81 65.15 28.78C65.13 28.76 65.11 28.73 65.1 28.7C65.08 28.67 65.06 28.65 65.04 28.63C65.02 28.6 65 28.57 64.98 28.54L64.93 28.47C64.89 28.42 64.85 28.37 64.81 28.32L64.76 28.25C64.74 28.22 64.71 28.19 64.69 28.17L64.64 28.1C64.61 28.07 64.59 28.05 64.56 28.02L64.51 27.96L64.44 27.87L64.39 27.82C64.3 27.72 64.2 27.61 64.1 27.52L64.06 27.47L63.97 27.38L63.92 27.34C63.89 27.31 63.86 27.28 63.83 27.25L63.79 27.22C63.68 27.12 63.57 27.02 63.45 26.92L63.42 26.89C63.38 26.86 63.35 26.83 63.31 26.81L63.27 26.78C63.23 26.75 63.2 26.72 63.16 26.69L63.14 26.67C63.01 26.57 62.88 26.48 62.74 26.39L62.73 26.37C62.68 26.34 62.64 26.31 62.6 26.29L62.57 26.27C62.53 26.24 62.48 26.21 62.44 26.18L62.43 26.18C62.29 26.09 62.14 26 61.99 25.91L61.98 25.91C61.93 25.88 61.89 25.86 61.84 25.83L61.82 25.82C61.56 25.69 61.3 25.56 61.03 25.45L61.02 25.44C60.95 25.41 60.88 25.38 60.8 25.35L62.22 25.35C62.45 25.35 62.63 25.1 62.63 24.79C62.63 24.48 62.45 24.23 62.22 24.23L61.8 24.23C61.82 24.17 61.85 24.1 61.88 24.02C62.28 23.78 62.98 23.28 63.68 22.36L63.68 22.35C63.73 22.28 63.79 22.21 63.84 22.14L63.85 22.12C63.9 22.05 63.95 21.98 64 21.9L64.01 21.88C64.03 21.84 64.06 21.8 64.08 21.77C64.08 21.77 64.08 21.76 64.08 21.76C64.11 21.73 64.13 21.68 64.16 21.64L64.17 21.62C64.19 21.58 64.21 21.55 64.23 21.51C64.24 21.51 64.24 21.5 64.25 21.49C64.27 21.45 64.29 21.41 64.32 21.37L64.33 21.34C64.35 21.31 64.37 21.27 64.39 21.24C64.39 21.23 64.4 21.22 64.4 21.21C64.43 21.17 64.45 21.12 64.47 21.08L64.48 21.05C64.5 21.01 64.52 20.98 64.54 20.94L64.56 20.9C64.58 20.86 64.6 20.82 64.62 20.77L64.63 20.74C64.65 20.7 64.67 20.67 64.68 20.63L64.7 20.58C64.72 20.54 64.74 20.49 64.76 20.45C64.77 20.44 64.77 20.43 64.77 20.42C64.79 20.38 64.81 20.34 64.83 20.29L64.84 20.24C64.86 20.2 64.88 20.16 64.89 20.12L64.9 20.09C64.92 20.04 64.94 19.99 64.96 19.94L64.98 19.89C64.99 19.85 65.01 19.81 65.02 19.76C65.03 19.75 65.03 19.73 65.04 19.72C65.05 19.67 65.07 19.62 65.09 19.56C65.09 19.54 65.1 19.53 65.1 19.51L65.14 19.38C65.15 19.37 65.15 19.35 65.16 19.33C65.18 19.28 65.19 19.22 65.21 19.17C65.21 19.15 65.22 19.13 65.22 19.11C65.23 19.07 65.25 19.03 65.26 18.98C65.26 18.96 65.27 18.94 65.27 18.92C65.29 18.87 65.3 18.81 65.32 18.75L65.33 18.7C65.34 18.65 65.35 18.61 65.36 18.56L65.37 18.49C65.39 18.43 65.4 18.37 65.41 18.31C65.42 18.3 65.42 18.29 65.42 18.27C65.43 18.22 65.44 18.17 65.45 18.11C65.46 18.09 65.46 18.07 65.47 18.04C65.48 17.99 65.49 17.93 65.5 17.88C65.5 17.86 65.5 17.85 65.5 17.84C65.51 17.78 65.52 17.71 65.54 17.64C65.54 17.62 65.54 17.6 65.55 17.57C65.55 17.52 65.56 17.47 65.57 17.41L65.58 17.36C65.59 17.29 65.6 17.22 65.6 17.15C65.61 17.13 65.61 17.11 65.61 17.08C65.62 17.03 65.62 16.97 65.63 16.92C65.63 16.9 65.64 16.88 65.64 16.86C65.65 16.78 65.65 16.71 65.66 16.64C65.66 16.62 65.66 16.6 65.66 16.57C65.67 16.52 65.67 16.46 65.68 16.4C65.68 16.37 65.68 16.35 65.68 16.33C65.69 16.25 65.69 16.18 65.7 16.1C65.7 16.08 65.7 16.06 65.7 16.05C65.71 15.98 65.71 15.92 65.71 15.85C65.71 15.83 65.71 15.8 65.72 15.78C65.72 15.7 65.72 15.62 65.72 15.54C65.72 15.53 65.72 15.52 65.72 15.5C65.73 15.43 65.73 15.36 65.73 15.28C65.73 15.26 65.73 15.23 65.73 15.21C65.73 15.13 65.73 15.05 65.73 14.97L65.73 14.95C65.73 14.86 65.73 14.78 65.73 14.69L65.73 14.61C65.73 14.54 65.73 14.46 65.72 14.38L65.72 14.34C65.72 14.25 65.72 14.16 65.71 14.07C65.71 14.04 65.71 14.02 65.71 14C65.71 13.92 65.7 13.84 65.7 13.76C65.7 13.75 65.7 13.73 65.7 13.71C65.69 13.61 65.68 13.52 65.68 13.42L65.67 13.36C65.67 13.28 65.66 13.2 65.65 13.12C65.65 13.09 65.65 13.07 65.65 13.05C65.64 12.95 65.63 12.85 65.62 12.75C65.62 12.73 65.62 12.72 65.62 12.7C65.61 12.61 65.6 12.53 65.59 12.44C65.59 12.42 65.58 12.39 65.58 12.37C65.57 12.26 65.56 12.16 65.55 12.06C65.55 12.04 65.54 12.03 65.54 12.02C65.53 11.93 65.52 11.83 65.5 11.74C65.5 11.71 65.5 11.68 65.49 11.66C65.48 11.55 65.46 11.44 65.45 11.34C63.87 0.68 52.68 2.41 52.68 2.41L53.04 4.7L46.27 11.48L46.57 14.09L49.13 15.59C49.24 15.31 49.39 15.05 49.57 14.81C51.22 13 54.43 11.58 55.35 11.28C55.53 11.23 55.64 11.2 55.64 11.2C51.24 16.59 51.74 22.76 51.94 24.24C51.73 24.27 51.58 24.51 51.58 24.79C51.58 25.1 51.76 25.35 51.99 25.35L53.41 25.35C51.06 26.29 49.19 28.06 48.22 30.29C48.22 30.3 48.22 30.3 48.21 30.3C48.14 30.47 48.08 30.64 48.01 30.81C48.01 30.81 48.01 30.81 48.01 30.81C48 30.86 47.98 30.9 47.97 30.95C47.96 30.97 47.95 30.98 47.95 31C47.93 31.04 47.92 31.09 47.91 31.13C47.9 31.15 47.89 31.17 47.89 31.19C47.88 31.23 47.86 31.27 47.85 31.32L47.83 31.39C47.82 31.43 47.81 31.47 47.8 31.51C47.79 31.53 47.78 31.56 47.78 31.59C47.77 31.63 47.76 31.66 47.75 31.7C47.74 31.74 47.73 31.78 47.72 31.82C47.71 31.86 47.7 31.9 47.69 31.95L47.13 31.95C47.02 31.94 46.91 31.96 46.81 32C46.71 32.04 46.62 32.09 46.54 32.17C46.46 32.24 46.4 32.32 46.36 32.42C46.32 32.51 46.3 32.61 46.3 32.72C46.3 32.82 46.32 32.92 46.36 33.02C46.4 33.11 46.46 33.2 46.54 33.27C46.62 33.34 46.71 33.4 46.81 33.43C46.91 33.47 47.02 33.49 47.13 33.49L67.09 33.49C67.2 33.49 67.31 33.47 67.41 33.43C67.51 33.4 67.6 33.34 67.68 33.27C67.76 33.2 67.82 33.11 67.86 33.02C67.9 32.92 67.92 32.82 67.92 32.72C67.92 32.61 67.9 32.51 67.86 32.42C67.82 32.32 67.76 32.24 67.68 32.17C67.6 32.09 67.51 32.04 67.41 32C67.31 31.96 67.2 31.94 67.09 31.95L67.09 31.94Z" fill="#595653" fill-opacity="1.000000" fill-rule="nonzero"/>
	<path id="Vector" d="" fill="#E7DBD0" fill-opacity="0" fill-rule="evenodd"/>
	<path id="Vector" d="M90.47 31.94L89.91 31.94C89.91 31.93 89.91 31.93 89.91 31.92L89.89 31.85C89.88 31.81 89.87 31.76 89.86 31.72C89.85 31.7 89.85 31.68 89.84 31.65C89.83 31.6 89.81 31.54 89.8 31.48L89.79 31.46C89.78 31.4 89.76 31.33 89.74 31.27L89.72 31.21C89.71 31.17 89.69 31.12 89.68 31.08C89.67 31.06 89.67 31.03 89.66 31.01C89.64 30.97 89.63 30.93 89.62 30.89C89.61 30.87 89.6 30.84 89.59 30.82C89.57 30.77 89.56 30.72 89.54 30.67C89.53 30.66 89.53 30.65 89.52 30.64C89.5 30.58 89.48 30.52 89.45 30.46C89.44 30.44 89.43 30.41 89.43 30.39C89.41 30.36 89.39 30.31 89.38 30.27L89.34 30.2C89.33 30.17 89.31 30.13 89.29 30.09C89.28 30.07 89.27 30.04 89.26 30.02C89.24 29.98 89.22 29.93 89.2 29.89C89.19 29.88 89.18 29.86 89.17 29.84C89.15 29.79 89.12 29.73 89.09 29.68L89.05 29.61L88.99 29.51L88.95 29.43C88.93 29.4 88.91 29.37 88.89 29.34C88.88 29.31 88.86 29.29 88.85 29.26C88.83 29.23 88.81 29.19 88.79 29.16L88.73 29.07C88.7 29.03 88.68 28.99 88.65 28.94C88.63 28.92 88.61 28.89 88.6 28.87C88.58 28.84 88.56 28.81 88.54 28.78C88.52 28.76 88.5 28.73 88.48 28.7C88.47 28.67 88.45 28.65 88.43 28.63C88.41 28.6 88.39 28.57 88.37 28.54L88.31 28.47C88.27 28.42 88.24 28.37 88.2 28.32L88.15 28.25C88.12 28.22 88.1 28.19 88.08 28.17L88.02 28.1C88 28.07 87.97 28.05 87.95 28.02L87.9 27.96L87.82 27.87L87.78 27.82C87.68 27.72 87.59 27.61 87.49 27.52L87.44 27.47L87.35 27.38L87.31 27.34C87.28 27.31 87.24 27.28 87.21 27.25L87.18 27.22C87.07 27.12 86.95 27.02 86.84 26.92L86.8 26.89C86.77 26.86 86.73 26.83 86.7 26.81L86.66 26.78C86.62 26.75 86.58 26.72 86.55 26.69L86.53 26.67C86.4 26.57 86.27 26.48 86.13 26.39L86.11 26.37C86.07 26.34 86.03 26.31 85.99 26.29L85.96 26.27C85.91 26.24 85.87 26.21 85.83 26.18L85.82 26.18C85.67 26.09 85.53 26 85.38 25.91L85.37 25.91C85.32 25.88 85.27 25.86 85.23 25.83L85.21 25.82C84.95 25.69 84.69 25.56 84.42 25.45L84.41 25.44C84.33 25.41 84.26 25.38 84.19 25.35L85.6 25.35C85.83 25.35 86.02 25.1 86.02 24.79C86.02 24.48 85.83 24.23 85.6 24.23L85.18 24.23C85.21 24.17 85.24 24.1 85.27 24.02C85.67 23.78 86.37 23.28 87.06 22.36L87.07 22.35C87.12 22.28 87.17 22.21 87.22 22.14L87.23 22.12C87.28 22.05 87.33 21.98 87.38 21.9L87.4 21.88C87.42 21.84 87.45 21.8 87.47 21.77C87.47 21.77 87.47 21.76 87.47 21.76C87.5 21.73 87.52 21.68 87.54 21.64L87.56 21.62C87.58 21.58 87.6 21.55 87.62 21.51C87.63 21.51 87.63 21.5 87.63 21.49C87.66 21.45 87.68 21.41 87.7 21.37L87.72 21.34C87.74 21.31 87.76 21.27 87.77 21.24C87.78 21.23 87.79 21.22 87.79 21.21C87.81 21.17 87.83 21.12 87.86 21.08L87.87 21.05C87.89 21.01 87.91 20.98 87.92 20.94L87.94 20.9C87.96 20.86 87.99 20.82 88.01 20.77L88.02 20.74C88.04 20.7 88.05 20.67 88.07 20.63L88.09 20.58C88.11 20.54 88.13 20.49 88.15 20.45C88.15 20.44 88.16 20.43 88.16 20.42C88.18 20.38 88.2 20.34 88.21 20.29L88.23 20.24C88.25 20.2 88.26 20.16 88.28 20.12L88.29 20.09C88.31 20.04 88.33 19.99 88.35 19.94L88.37 19.89C88.38 19.85 88.39 19.81 88.41 19.76C88.41 19.75 88.42 19.73 88.42 19.72C88.44 19.67 88.46 19.62 88.47 19.56C88.48 19.54 88.49 19.53 88.49 19.51L88.53 19.38C88.54 19.37 88.54 19.35 88.55 19.33C88.56 19.28 88.58 19.22 88.59 19.17C88.6 19.15 88.6 19.13 88.61 19.11C88.62 19.07 88.63 19.03 88.64 18.98C88.65 18.96 88.65 18.94 88.66 18.92C88.67 18.87 88.69 18.81 88.7 18.75L88.72 18.7C88.73 18.65 88.74 18.61 88.75 18.56L88.76 18.49C88.78 18.43 88.79 18.37 88.8 18.31C88.8 18.3 88.81 18.29 88.81 18.27C88.82 18.22 88.83 18.17 88.84 18.11C88.85 18.09 88.85 18.07 88.85 18.04C88.86 17.99 88.87 17.93 88.88 17.88C88.89 17.86 88.89 17.85 88.89 17.84C88.9 17.78 88.91 17.71 88.92 17.64C88.93 17.62 88.93 17.6 88.93 17.57C88.94 17.52 88.95 17.47 88.96 17.41L88.96 17.36C88.97 17.29 88.98 17.22 88.99 17.15C88.99 17.13 89 17.11 89 17.08C89.01 17.03 89.01 16.97 89.02 16.92C89.02 16.9 89.02 16.88 89.02 16.86C89.03 16.78 89.04 16.71 89.05 16.64C89.05 16.62 89.05 16.6 89.05 16.57C89.06 16.52 89.06 16.46 89.07 16.4C89.07 16.37 89.07 16.35 89.07 16.33C89.08 16.25 89.08 16.18 89.09 16.1C89.09 16.08 89.09 16.06 89.09 16.05C89.09 15.98 89.1 15.92 89.1 15.85C89.1 15.83 89.1 15.8 89.1 15.78C89.11 15.7 89.11 15.62 89.11 15.54C89.11 15.53 89.11 15.52 89.11 15.5C89.11 15.43 89.11 15.36 89.12 15.28C89.12 15.26 89.12 15.23 89.12 15.21C89.12 15.13 89.12 15.05 89.12 14.97L89.12 14.95C89.12 14.86 89.12 14.78 89.12 14.69L89.12 14.61C89.12 14.54 89.11 14.46 89.11 14.38L89.11 14.34C89.11 14.25 89.1 14.16 89.1 14.07C89.1 14.04 89.1 14.02 89.1 14C89.09 13.92 89.09 13.84 89.09 13.76C89.09 13.75 89.09 13.73 89.08 13.71C89.08 13.61 89.07 13.52 89.06 13.42L89.06 13.36C89.05 13.28 89.05 13.2 89.04 13.12C89.04 13.09 89.04 13.07 89.04 13.05C89.03 12.95 89.02 12.85 89.01 12.75C89.01 12.73 89 12.72 89 12.7C88.99 12.61 88.99 12.53 88.98 12.44C88.97 12.42 88.97 12.39 88.97 12.37C88.96 12.26 88.95 12.16 88.93 12.06C88.93 12.04 88.93 12.03 88.93 12.02C88.92 11.93 88.9 11.83 88.89 11.74C88.89 11.71 88.88 11.68 88.88 11.66C88.87 11.55 88.85 11.44 88.83 11.34C87.26 0.68 76.07 2.41 76.07 2.41L76.42 4.7L69.66 11.48L69.95 14.09L72.52 15.59C72.63 15.31 72.78 15.05 72.95 14.81C74.61 13 77.82 11.58 78.74 11.28C78.92 11.23 79.02 11.2 79.02 11.2C74.63 16.59 75.13 22.76 75.33 24.24C75.12 24.27 74.96 24.51 74.96 24.79C74.96 25.1 75.15 25.35 75.38 25.35L76.79 25.35C74.44 26.29 72.58 28.06 71.61 30.29C71.6 30.3 71.6 30.3 71.6 30.3C71.53 30.47 71.46 30.64 71.4 30.81C71.4 30.81 71.4 30.81 71.4 30.81C71.38 30.86 71.37 30.9 71.35 30.95C71.35 30.97 71.34 30.98 71.34 31C71.32 31.04 71.31 31.09 71.3 31.13C71.29 31.15 71.28 31.17 71.28 31.19C71.26 31.23 71.25 31.27 71.24 31.32L71.22 31.39C71.21 31.43 71.19 31.47 71.18 31.51C71.18 31.53 71.17 31.56 71.16 31.59C71.15 31.63 71.14 31.66 71.13 31.7C71.13 31.74 71.12 31.78 71.11 31.82C71.1 31.86 71.09 31.9 71.08 31.95L70.52 31.95C70.41 31.94 70.3 31.96 70.2 32C70.1 32.04 70.01 32.09 69.93 32.17C69.85 32.24 69.79 32.32 69.75 32.42C69.71 32.51 69.68 32.61 69.68 32.72C69.68 32.82 69.71 32.92 69.75 33.02C69.79 33.11 69.85 33.2 69.93 33.27C70.01 33.34 70.1 33.4 70.2 33.43C70.3 33.47 70.41 33.49 70.52 33.49L90.48 33.49C90.59 33.49 90.7 33.47 90.8 33.43C90.9 33.4 90.99 33.34 91.07 33.27C91.14 33.2 91.21 33.11 91.25 33.02C91.29 32.92 91.31 32.82 91.31 32.72C91.31 32.61 91.29 32.51 91.25 32.42C91.21 32.32 91.14 32.24 91.07 32.17C90.99 32.09 90.9 32.04 90.8 32C90.7 31.96 90.59 31.94 90.48 31.95L90.47 31.94Z" fill="#595653" fill-opacity="1.000000" fill-rule="nonzero"/>
	<path id="Vector" d="" fill="#E7DBD0" fill-opacity="0" fill-rule="evenodd"/>
	<path id="Клуб четырех коней" d="M105.99 15L108.86 15L104.29 8.82L108.62 3.1L105.94 3.1L101.68 8.87L101.68 3.1L99.16 3.1L99.16 15L101.68 15L101.68 8.97L105.99 15ZM117.24 15L119.76 15L119.76 3.1L112.25 3.1Q112.05 4.82 111.83 6.34Q111.6 7.87 111.42 9Q111.24 10.13 111.13 10.67Q110.87 12.06 110.61 12.57Q110.45 12.9 110.19 13.02Q110.04 13.08 109.87 13.08Q109.62 13.08 109.41 13.03Q109.2 12.98 108.99 12.91L108.99 14.98Q109.54 15.16 110.19 15.16Q111.18 15.16 111.81 14.78Q111.92 14.71 112.02 14.63Q112.5 14.27 112.79 13.67Q113.15 12.93 113.37 11.9Q113.5 11.26 113.63 10.44Q113.76 9.62 113.89 8.69Q114.02 7.77 114.12 6.87Q114.23 5.97 114.33 5.21L117.24 5.21L117.24 15ZM127.56 13.47Q128.12 12.65 128.62 11.52L132.3 3.1L129.7 3.1L127.64 8.1Q127.49 8.47 127.3 8.95Q127.11 9.43 127 9.73L126.92 9.73Q126.82 9.42 126.62 8.96Q126.42 8.5 126.3 8.25L124.09 3.1L121.43 3.1L125.54 11.65Q125.32 12.23 124.95 12.64Q124.59 13.05 123.76 13.05Q123.34 13.05 122.86 12.98Q122.37 12.91 121.97 12.75L121.97 14.91Q122.41 15.03 122.93 15.09Q123.44 15.16 123.87 15.16Q125.27 15.16 126.14 14.73Q126.48 14.56 126.77 14.33Q127.22 13.97 127.56 13.47ZM133.8 3.1L133.8 15L137.26 15Q139.82 15 141 14.02Q141.36 13.73 141.61 13.35Q142.17 12.51 142.17 11.28Q142.17 10.49 141.88 9.82Q141.78 9.61 141.66 9.42L141.65 9.41Q141.14 8.6 140.07 8.14Q138.99 7.67 137.31 7.67L136.31 7.67L136.31 5.19L141.31 5.19L141.31 3.1L133.8 3.1ZM138.97 12.56Q138.31 12.93 137.16 12.93L136.31 12.93L136.31 9.73L136.96 9.73Q138.19 9.73 138.91 10.04Q139.15 10.14 139.31 10.31Q139.62 10.65 139.62 11.28Q139.62 11.91 139.32 12.28Q139.17 12.45 138.97 12.56ZM235.52 18.72Q235.92 18.06 236 17.19L233.75 17.19Q233.67 18.06 233.21 18.38Q232.75 18.71 232.04 18.71Q231.17 18.71 230.79 18.41Q230.41 18.11 230.32 17.19L228.11 17.19Q228.18 18.09 228.53 18.74Q228.55 18.8 228.59 18.85Q228.94 19.42 229.7 19.75Q230.52 20.11 231.99 20.11Q233.42 20.11 234.27 19.74Q235.1 19.38 235.5 18.75Q235.51 18.73 235.52 18.72ZM201.29 30.26Q201.9 28.88 201.9 27.04Q201.9 25.19 201.29 23.81Q200.94 23.03 200.39 22.44Q199.97 22 199.43 21.68Q198.18 20.92 196.25 20.92Q194.31 20.92 193.05 21.68Q192.49 22.02 192.06 22.47Q191.52 23.04 191.18 23.8Q190.58 25.17 190.58 27.02Q190.58 28.86 191.18 30.25Q191.53 31.04 192.09 31.63Q192.51 32.07 193.05 32.4Q194.31 33.16 196.24 33.16Q198.18 33.16 199.43 32.4Q199.98 32.06 200.41 31.61Q200.95 31.03 201.29 30.26ZM105.77 33L108.29 33L108.29 21.1L105.77 21.1L105.77 26.43Q104.91 26.73 104.21 26.88Q103.51 27.04 102.81 27.04Q101.86 27.04 101.46 26.6Q101.06 26.17 101.06 25.3L101.06 21.1L98.55 21.1L98.55 26.02Q98.55 27.15 99.09 27.89Q99.26 28.13 99.49 28.32Q100.43 29.13 102.1 29.13Q102.28 29.13 102.47 29.12Q103.16 29.09 103.85 28.95Q104.73 28.77 105.77 28.4L105.77 33ZM111.29 33L118.13 33L118.13 30.91L113.8 30.91L113.8 27.85L117.83 27.85L117.83 25.78L113.8 25.78L113.8 23.17L118.13 23.17L118.13 21.1L111.29 21.1L111.29 33ZM122.68 33L125.19 33L125.19 23.21L128.42 23.21L128.42 21.1L119.44 21.1L119.44 23.21L122.68 23.21L122.68 33ZM130.25 21.1L130.25 33L133.5 33Q136.05 33 137.21 32.02Q137.56 31.73 137.8 31.37Q138.37 30.52 138.37 29.28Q138.37 28.47 138.07 27.79Q137.98 27.6 137.87 27.42Q137.86 27.41 137.86 27.4Q137.35 26.6 136.29 26.14Q135.23 25.67 133.58 25.67L132.76 25.67L132.76 21.1L130.25 21.1ZM139.83 21.1L139.83 33L142.34 33L142.34 21.1L139.83 21.1ZM152.49 22.1Q151.43 21.1 149.14 21.1L145.34 21.1L145.34 33L147.85 33L147.85 28.77L148.93 28.77Q150.66 28.77 151.67 28.22Q152.52 27.75 152.96 27.03Q153.04 26.9 153.11 26.76Q153.27 26.43 153.37 26.08Q153.55 25.47 153.55 24.82Q153.55 23.49 152.92 22.59Q152.73 22.32 152.49 22.1ZM155.8 33L162.64 33L162.64 30.91L158.31 30.91L158.31 27.85L162.34 27.85L162.34 25.78L158.31 25.78L158.31 23.17L162.64 23.17L162.64 21.1L155.8 21.1L155.8 33ZM171.84 33L174.73 33L170.71 27L174.44 21.1L171.73 21.1L169.21 25.38L166.65 21.1L163.87 21.1L167.57 26.87L163.62 33L166.32 33L169.08 28.5L171.84 33ZM187.08 33L189.95 33L185.38 26.82L189.71 21.1L187.03 21.1L182.77 26.87L182.77 21.1L180.25 21.1L180.25 33L182.77 33L182.77 26.97L187.08 33ZM211.59 33L214.11 33L214.11 21.1L211.59 21.1L211.59 25.77L206.88 25.77L206.88 21.1L204.37 21.1L204.37 33L206.88 33L206.88 27.86L211.59 27.86L211.59 33ZM217.1 33L223.95 33L223.95 30.91L219.62 30.91L219.62 27.85L223.64 27.85L223.64 25.78L219.62 25.78L219.62 23.17L223.95 23.17L223.95 21.1L217.1 21.1L217.1 33ZM228.69 21.1L226.43 21.1L226.43 33L229.46 33L234.97 23.88L235.03 23.88Q235.02 24 234.99 24.38Q234.97 24.75 234.94 25.25Q234.92 25.75 234.9 26.29Q234.88 26.83 234.88 27.28L234.88 33L237.13 33L237.13 21.1L234.12 21.1L228.62 30.13L228.57 30.13Q228.59 30 228.61 29.64Q228.62 29.28 228.64 28.79Q228.66 28.3 228.68 27.78Q228.69 27.27 228.69 26.85L228.69 21.1ZM193.94 29.97Q193.22 28.9 193.22 27.04Q193.22 25.15 193.94 24.09Q194.13 23.81 194.38 23.6Q195.08 23.02 196.25 23.02Q197.44 23.02 198.13 23.61Q198.37 23.81 198.55 24.09Q199.25 25.15 199.25 27.04Q199.25 28.9 198.55 29.97Q198.38 30.25 198.14 30.45Q197.44 31.05 196.24 31.05Q195.1 31.05 194.41 30.49Q194.14 30.27 193.94 29.97ZM147.85 23.17L149 23.17Q150.14 23.17 150.63 23.73Q151 24.16 151 24.9Q151 25.61 150.65 26.03Q150.53 26.17 150.37 26.28Q149.75 26.7 148.68 26.7L147.85 26.7L147.85 23.17ZM135.19 30.56Q134.55 30.93 133.43 30.93L132.76 30.93L132.76 27.73L133.31 27.73Q134.51 27.73 135.17 28.04Q135.35 28.12 135.49 28.25Q135.83 28.6 135.83 29.28Q135.83 29.93 135.51 30.3Q135.38 30.46 135.19 30.56Z" fill="#595653" fill-opacity="1.000000" fill-rule="evenodd"/>
</svg>
